<?xml version="1.0" encoding="UTF-8"?>
<svg width="60px" height="58px" viewBox="0 0 60 58" version="1.1" xmlns="http://www.w3.org/2000/svg" xmlns:xlink="http://www.w3.org/1999/xlink">
    <!-- Generator: Sketch 49.3 (51167) - http://www.bohemiancoding.com/sketch -->
    <title>Group 20</title>
    <desc>Created with Sketch.</desc>
    <defs>
        <radialGradient cx="50%" cy="79.8565696%" fx="50%" fy="79.8565696%" r="82.7792135%" gradientTransform="translate(0.500000,0.798566),scale(0.606582,1.000000),rotate(90.000000),translate(-0.500000,-0.798566)" id="radialGradient-1">
            <stop stop-color="#FFDB57" offset="0%"></stop>
            <stop stop-color="#FEB304" offset="59.6707912%"></stop>
            <stop stop-color="#FD6602" offset="100%"></stop>
        </radialGradient>
    </defs>
    <g id="Page-1" stroke="none" stroke-width="1" fill="none" fill-rule="evenodd">
        <g id="ic-colored" transform="translate(-293.000000, -524.000000)">
            <g id="Group-2" transform="translate(293.000000, 524.000000)">
                <path d="M20.6702495,57.9661017 C18.4659727,57.3196445 17.2008878,55.5834375 16.0368153,53.7983865 C14.6163368,51.6202071 12.755292,50.1353489 10.2335289,49.4638096 C9.28606167,49.2114048 8.37051378,48.825009 7.45798707,48.4560386 C5.36326079,47.6093209 4.33277684,45.9924517 4.23294665,43.7645042 C4.1660867,42.2717253 4.15951892,40.7761742 4.1256292,39.2820751 C4.12260802,39.1501963 4.12260802,39.0177894 4.11170552,38.8865706 C3.99900249,37.5298948 4.00622704,37.5578811 5.36010826,37.1808581 C10.8206881,35.6600929 16.276145,34.1211101 21.7330469,32.5875399 C24.0297979,31.9420067 26.3262863,31.2963415 28.6208043,30.6436798 C29.2708827,30.4587326 29.9017832,30.4653331 30.5576412,30.6523925 C38.4079718,32.8914289 46.2617176,35.1183203 54.1145439,37.3479839 C55.001719,37.5999926 54.9993546,37.5984085 54.822156,38.5317253 C54.6320846,39.5340839 54.7189106,40.5492475 54.6977623,41.5588666 C54.679898,42.4156172 54.670309,43.2703876 54.6092287,44.1272701 C54.4480555,46.3859761 53.3257541,47.9183583 51.2398286,48.7168921 C49.9528073,49.2094246 48.6392523,49.6331795 47.332659,50.0729077 C45.6492068,50.6394984 44.3499695,51.6966414 43.3473329,53.1525893 C42.9615418,53.7128435 42.5396279,54.2477515 42.1458241,54.8025932 C41.1917891,56.1464639 40.0689622,57.2925822 38.5345985,57.9661017 L35.9074883,57.9661017 C34.6008951,57.5437989 33.3063866,57.0768765 31.9836366,56.7137146 C30.9815254,56.4386039 29.9689058,56.196892 28.8908712,56.3406518 C26.8188694,56.6169506 24.9030493,57.4409625 22.9032931,57.9661017 L20.6702495,57.9661017 Z" id="Fill-1" fill="#CB1C01"></path>
                <g id="Group" fill="url(#radialGradient-1)">
                    <path d="M0,28.092969 C0.0439386674,26.9164425 0.872590362,25.6103053 1.76109862,24.3398599 C2.54633786,23.2168711 3.41813891,22.1511976 4.05419716,20.9312939 C4.30967289,20.4412482 4.66973316,20.5702076 5.06136614,20.7009906 C9.17121017,22.0744733 13.2826328,23.4439178 17.393924,24.8136229 C19.3666912,25.4707947 21.3409055,26.124189 23.3126203,26.7848779 C23.6855728,26.9097991 24.0710228,27.035502 24.3095282,27.377049 C24.6699831,27.8932773 24.3833294,28.5949988 23.6743908,28.8841805 C21.9934079,29.5698797 20.3057158,30.2398172 18.6201285,30.9145744 C14.4175397,32.596778 10.2111358,34.2699936 6.01315134,35.9639208 C4.41754626,36.6079362 4.45595971,36.6106717 3.54035155,35.1714067 C2.86403811,34.1084687 2.10550411,33.0962026 1.3695972,32.0713011 C0.547260049,30.9261677 0.00315726951,29.5474746 0,28.092969 Z M60,28.6273689 C59.9492206,29.4613063 59.6579625,30.2942016 59.2208122,31.0834591 C58.3751902,32.6101299 57.1650351,33.8921686 56.277053,35.3907028 C55.5696931,36.5845541 55.5650888,36.5845541 54.2467972,36.0603798 C48.4564964,33.758129 42.6664588,31.4549664 36.8772105,29.1499801 C36.6539652,29.0611414 36.4413758,28.9466411 36.2207615,28.8510288 C35.7763759,28.6583713 35.5074817,28.3432675 35.5405015,27.8452758 C35.5775994,27.2891873 35.9468684,27.0174607 36.4428228,26.8543727 C38.2095782,26.2735343 39.9748866,25.6882671 41.7394056,25.1005249 C46.0997263,23.648364 50.4629412,22.2046702 54.8149741,20.7289318 C55.4491907,20.5138692 55.7978058,20.586816 56.1086653,21.2209314 C56.7716919,22.5729209 57.805303,23.6925228 58.6273771,24.9473368 C59.3505234,26.0511771 59.9361968,27.2059498 60,28.6273689 Z M24.5317868,25.0400834 C24.3981291,25.012077 24.1829085,24.9735195 23.9711084,24.9212844 C20.1255541,23.972977 16.2874983,22.9940579 12.4328669,22.083787 C10.0065053,21.5107644 7.61737314,20.7880708 5.16404317,20.3240775 C4.73044483,20.2420124 4.40524607,19.9982922 4.54192953,19.5086373 C4.81621731,18.5263315 4.73215501,17.5264403 4.73675937,16.5326714 C4.74254769,15.3156334 4.81490179,14.1032849 5.01038939,12.9050046 C5.32572168,10.9720466 6.59796974,9.83837634 8.34683395,9.12649445 C10.0871472,8.41799937 11.9638808,8.07554054 13.6361813,7.18389707 C13.9603276,7.01103938 14.1698914,7.20604161 14.345646,7.45848939 C17.5627721,12.0796645 20.7796351,16.7012304 24.00005,21.3200608 C24.497583,22.0337664 25.0168223,22.7326221 25.5190913,23.4429408 C25.7629904,23.7877444 25.8273197,24.1605543 25.6152565,24.5454785 C25.4000359,24.9363948 25.0351082,25.0455544 24.5317868,25.0400834 Z M35.4885118,25.0463099 C34.9238868,25.0311995 34.5855327,24.9100558 34.388598,24.5420656 C34.1862697,24.1640453 34.2041609,23.8045221 34.4602944,23.4429148 C35.5160064,21.9516753 36.5615888,20.4535319 37.6108547,18.9577332 C40.1340392,15.3604175 42.6606442,11.765186 45.1785666,8.16422291 C45.9499928,7.0611642 45.9409156,7.05061298 47.1502814,7.55642037 C48.4439726,8.09752876 49.8022563,8.45210196 51.1225211,8.91531367 C53.3347146,9.69141474 54.8705947,11.0585146 55.0585838,13.5263284 C55.1506708,14.7354204 55.1993454,15.9478992 55.2551238,17.1594661 C55.2889329,17.8947952 55.214474,18.6401544 55.4229853,19.3586797 C55.5816381,19.9059104 55.3569458,20.1750317 54.8382327,20.3020372 C53.0318799,20.7442767 51.2281581,21.1961556 49.4225946,21.6412609 C45.5124479,22.6054603 41.6023011,23.5692689 37.691102,24.5295605 C36.9059943,24.7223483 36.11694,24.8992441 35.4885118,25.0463099 Z M30.2203577,4.17385461 C30.2203577,3.52332612 30.228514,2.87266737 30.216148,2.22239941 C30.2116752,1.97880945 30.2386435,1.7797691 30.5292439,1.74928778 C32.3578291,1.55832368 34.0414431,0.837193179 35.7717584,0.305333385 C38.4018954,-0.503202921 40.3930801,0.36134605 42.0149957,2.39708077 C43.0979392,3.7562346 43.9838164,5.27144232 45.3096065,6.43845968 C45.6613789,6.74809248 45.4783888,7.07648301 45.2456717,7.35889105 C44.1520725,8.68560964 43.0497908,10.0051638 41.9521134,11.3283653 C40.3411167,13.2704417 38.7397233,15.220464 37.1184654,17.1540733 C35.7208474,18.820906 34.305996,20.4736704 32.8874611,22.1231782 C32.5513435,22.5140945 32.1508964,22.841443 31.5750894,22.611791 C30.9838907,22.3761471 30.9458719,21.8604398 30.9048274,21.317638 C30.7380183,19.1086548 30.9440302,16.8839099 30.7340717,14.6879529 C30.3991381,11.1869008 30.6205416,7.66839359 30.2203577,4.17385461 Z M29.7647374,3.96733721 C29.4918967,6.88663916 29.6416039,9.82756459 29.4053349,12.7359245 C29.211689,15.1193286 29.3937582,17.5061194 29.1043418,19.876888 C29.0335664,20.4569447 29.0019937,21.0419514 28.9564764,21.6248739 C28.921878,22.0677648 28.7596732,22.4175183 28.3091046,22.5910273 C27.8648504,22.7621916 27.5532016,22.5542934 27.2558921,22.2669354 C26.0286351,21.0815511 25.038568,19.6968659 23.9465474,18.3985444 C20.8642631,14.7338833 17.7981597,11.0559354 14.7199535,7.38788738 C14.4572423,7.0747375 14.2630703,6.79480444 14.659176,6.44817723 C15.937344,5.33026864 16.8061193,3.88045245 17.8497284,2.57262186 C18.3138471,1.99113224 18.834665,1.46070532 19.4036313,0.987202912 C20.4792077,0.0920423676 21.7415893,-0.14803052 23.1057929,0.0817516687 C24.3854079,0.29746556 25.6042455,0.730065701 26.8275559,1.14104235 C27.5977981,1.3997427 28.3792223,1.62066707 29.1861677,1.69647956 C29.6817275,1.74311337 29.8123595,1.94371686 29.7744723,2.40601674 C29.7321123,2.92328719 29.7647374,3.44667995 29.7647374,3.96733721 Z" id="Combined-Shape"></path>
                </g>
            </g>
        </g>
    </g>
</svg>