<?xml version="1.0" encoding="UTF-8"?>
<svg width="30px" height="29px" viewBox="0 0 30 29" version="1.1" xmlns="http://www.w3.org/2000/svg" xmlns:xlink="http://www.w3.org/1999/xlink">
    <!-- Generator: Sketch 49.3 (51167) - http://www.bohemiancoding.com/sketch -->
    <title>ic_yi40</title>
    <desc>Created with Sketch.</desc>
    <defs></defs>
    <g id="Page-1" stroke="none" stroke-width="1" fill="none" fill-rule="evenodd" opacity="0.900000036">
        <g id="ic-colored" transform="translate(-317.000000, -334.000000)" fill="#D4247A">
            <path d="M327.594987,362.764192 C326.491193,362.442084 325.8577,361.576993 325.274789,360.687563 C324.563482,359.602252 323.631562,358.862399 322.368786,358.527794 C321.89434,358.402029 321.435878,358.209502 320.978929,358.025656 C319.929992,357.603766 319.413976,356.798136 319.363986,355.688027 C319.330506,354.944227 319.327217,354.199046 319.310246,353.454588 C319.308734,353.388877 319.308734,353.322903 319.303274,353.257522 C319.246838,352.581537 319.250456,352.595482 319.928414,352.407624 C322.662806,351.649879 325.394634,350.883058 328.127185,350.118933 C329.277286,349.797286 330.427256,349.475573 331.576239,349.150374 C331.901766,349.058222 332.21769,349.06151 332.546112,349.154716 C336.477176,350.27035 340.40995,351.379933 344.342263,352.490897 C344.786517,352.616464 344.785333,352.615675 344.696601,353.080715 C344.601422,353.580155 344.644901,354.085976 344.634311,354.589034 C344.625365,355.015923 344.620563,355.441826 344.589977,355.868781 C344.50927,356.994216 343.947276,357.757749 342.902746,358.155631 C342.258268,358.401043 341.600503,358.612185 340.946225,358.831286 C340.103234,359.113599 339.452639,359.640337 338.950568,360.365785 C338.757382,360.64494 338.546108,360.911466 338.348911,361.187925 C337.871176,361.857529 337.308919,362.4286 336.540584,362.764192 L335.225055,362.764192 C334.570777,362.553773 333.92255,362.321122 333.260181,362.140171 C332.758373,362.003092 332.251302,361.882656 331.711475,361.954286 C330.673917,362.091956 329.714568,362.502533 328.713187,362.764192 L327.594987,362.764192 Z M317,348.185684 C317.021969,347.591591 317.436295,346.932051 317.880549,346.290533 C318.273169,345.723474 318.709069,345.185357 319.027099,344.569361 C319.154836,344.32191 319.334867,344.387028 319.530683,344.453068 C321.585605,345.146615 323.641316,345.838122 325.696962,346.529762 C326.683346,346.861604 327.670453,347.191539 328.65631,347.525157 C328.842786,347.588236 329.035511,347.651711 329.154764,347.824177 C329.334992,348.084849 329.191665,348.439186 328.837195,348.58521 C327.996704,348.931457 327.152858,349.269746 326.310064,349.610468 C324.20877,350.459905 322.105568,351.304803 320.006576,352.16016 C319.208773,352.485359 319.22798,352.48674 318.770176,351.759976 C318.432019,351.22324 318.052752,350.712091 317.684799,350.194562 C317.27363,349.616322 317.001579,348.920144 317,348.185684 Z M347,348.455532 C346.97461,348.876633 346.828981,349.297207 346.610406,349.695747 C346.187595,350.466647 345.582518,351.114018 345.138527,351.870711 C344.784847,352.473552 344.782544,352.473552 344.123399,352.208867 C341.228248,351.046335 338.333229,349.883341 335.438605,348.719427 C335.326983,348.674567 335.220688,348.61675 335.110381,348.56847 C334.888188,348.471187 334.753741,348.312073 334.770251,348.06061 C334.7888,347.77981 334.973434,347.642601 335.221411,347.560249 C336.104789,347.266951 336.987443,346.971418 337.869703,346.674634 C340.049863,345.941359 342.231471,345.212358 344.407487,344.467177 C344.724595,344.35858 344.898903,344.395415 345.054333,344.715614 C345.385846,345.398308 345.902652,345.963657 346.313689,346.597281 C346.675262,347.154671 346.968098,347.737779 347,348.455532 Z M329.265893,346.644114 C329.199065,346.629972 329.091454,346.610502 328.985554,346.584126 C327.062777,346.105274 325.143749,345.610963 323.216433,345.151318 C322.003253,344.861967 320.808687,344.497039 319.582022,344.262744 C319.365222,344.221304 319.202623,344.098237 319.270965,343.850983 C319.408109,343.354963 319.366078,342.850063 319.36838,342.348254 C319.371274,341.733705 319.407451,341.121524 319.505195,340.516446 C319.662861,339.540389 320.298985,338.967937 321.173417,338.608469 C322.043574,338.25071 322.98194,338.077784 323.818091,337.627544 C323.980164,337.540259 324.084946,337.638726 324.172823,337.766201 C325.781386,340.099686 327.389818,342.433369 329.000025,344.76567 C329.248792,345.12606 329.508411,345.47895 329.759546,345.837629 C329.881495,346.011739 329.91366,346.199992 329.807628,346.394361 C329.700018,346.591756 329.517554,346.646877 329.265893,346.644114 Z M334.744256,346.647258 C334.461943,346.639628 334.292766,346.578456 334.194299,346.392638 C334.093135,346.201754 334.10208,346.020211 334.230147,345.837616 C334.758003,345.084607 335.280794,344.328112 335.805427,343.572801 C337.06702,341.756319 338.330322,339.940889 339.589283,338.122565 C339.974996,337.56557 339.970458,337.560242 340.575141,337.815652 C341.221986,338.088887 341.901128,338.267931 342.561261,338.501832 C343.667357,338.893728 344.435297,339.584052 344.529292,340.830187 C344.575335,341.440724 344.599673,342.052971 344.627562,342.664757 C344.644466,343.036065 344.607237,343.412438 344.711493,343.775261 C344.790819,344.051588 344.678473,344.187482 344.419116,344.251614 C343.51594,344.474925 342.614079,344.703104 341.711297,344.927862 C339.756224,345.414739 337.801151,345.901419 335.845551,346.386323 C335.452997,346.483672 335.05847,346.572997 334.744256,346.647258 Z M332.110179,336.107609 C332.110179,335.779121 332.114257,335.450568 332.108074,335.122212 C332.105838,334.99921 332.119322,334.898703 332.264622,334.883312 C333.178915,334.786883 334.020722,334.422745 334.885879,334.15418 C336.200948,333.745905 337.19654,334.182463 338.007498,335.210418 C338.54897,335.896729 338.991908,336.661841 339.654803,337.251132 C339.830689,337.407483 339.739194,337.573305 339.622836,337.715909 C339.076036,338.385842 338.524895,339.052157 337.976057,339.720314 C337.170558,340.700975 336.369862,341.685649 335.559233,342.662034 C334.860424,343.50371 334.152998,344.338281 333.443731,345.171208 C333.275672,345.368604 333.075448,345.5339 332.787545,345.417936 C332.491945,345.298946 332.472936,345.038537 332.452414,344.764447 C332.369009,343.64901 332.472015,342.525614 332.367036,341.416755 C332.199569,339.648881 332.310271,337.872193 332.110179,336.107609 Z M331.882369,336.003327 C331.745948,337.477443 331.820802,338.962477 331.702667,340.431068 C331.605845,341.63458 331.696879,342.839802 331.552171,344.036933 C331.516783,344.329836 331.500997,344.625238 331.478238,344.919587 C331.460939,345.143227 331.379837,345.319837 331.154552,345.407451 C330.932425,345.493881 330.776601,345.388902 330.627946,345.243799 C330.014318,344.645234 329.519284,343.94603 328.973274,343.290436 C327.432132,341.439947 325.89908,339.582749 324.359977,337.73055 C324.228621,337.572424 324.131535,337.43107 324.329588,337.256039 C324.968672,336.691546 325.40306,335.959454 325.924864,335.299058 C326.156924,335.005432 326.417332,334.73759 326.701816,334.498493 C327.239604,334.046477 327.870795,333.925251 328.552896,334.041281 C329.192704,334.150207 329.802123,334.36865 330.413778,334.576175 C330.798899,334.706807 331.189611,334.818364 331.593084,334.856646 C331.840864,334.880194 331.90618,334.981489 331.887236,335.21493 C331.866056,335.476128 331.882369,335.740418 331.882369,336.003327 Z" id="ic_yi40"></path>
        </g>
    </g>
</svg>